:SAMPLES-PER-SECOND 24
:FULLY-SPECIFIED
:DEGREES
573
root  0.0726535 38.5937 22.7594 5.76855 -53.1515 0.337219
RightUpLeg  -15.4583 3.07991 -7.75551
RightLeg  28.1981 -10.3258 -6.1654
RightFoot  -16.6117 0.175038 6.24158
RightToes  -2.08645e-008 3.77894e-005 6.81332e-007
Spine  5.63122 -0.393007 -2.19674
Spine1  1.43258 -1.34006 4.7684
HEad  -33.2456 38.7962 -20.8878
LeftShoulder1  7.49334 -13.3004 -38.4697
LeftArm  -3.66269 14.6395 -30.9114
LeftForeArm  172.663 -70.4893 -153.054
LeftHand  -0.67693 1.19237 18.6751
RightShoulder  3.89363 6.65143 32.4554
RightArm  15.1519 -16.5984 36.0462
RightForeArm  159.802 74.3419 144.105
RightHand  -1.23617 7.4027 -11.5211
LeftUpLeg  -11.7201 -2.13087 14.2398
LeftLeg  23.1578 8.92265 4.4904
LeftFoot  -7.21187 0.751469 -19.8511
LeftToes  1.24767e-006 1.47042e-008 1.32732e-009
574
root  0.743742 38.0052 23.1027 4.24951 -53.0166 0.62677
RightUpLeg  -16.8481 1.63159 -9.27847
RightLeg  32.881 -8.23843 -5.93955
RightFoot  -18.6624 0.32674 7.07929
RightToes  -2.08645e-008 3.77894e-005 6.81332e-007
Spine  7.44928 -0.74641 -2.94174
Spine1  1.95321 -1.87717 5.04356
HEad  -35.8356 37.6803 -21.7758
LeftShoulder1  8.15626 -13.8959 -40.6348
LeftArm  -3.78361 12.2104 -28.3352
LeftForeArm  168.308 -71.6119 -150.751
LeftHand  -0.672811 1.43259 19.6647
RightShoulder  3.94832 6.69369 32.8335
RightArm  13.9266 -15.1236 35.0449
RightForeArm  157.563 74.7275 142.783
RightHand  -1.26575 7.52021 -11.6845
LeftUpLeg  -11.6817 -2.4291 12.8757
LeftLeg  25.528 9.47058 5.23081
LeftFoot  -12.7239 -0.164074 -19.6972
LeftToes  1.24767e-006 1.47042e-008 1.32732e-009
575
root  1.33085 37.647 23.5408 3.2002 -51.6912 0.979706
RightUpLeg  -17.05 0.115274 -10.8719
RightLeg  35.0683 -7.52589 -5.89746
RightFoot  -19.5551 0.454632 8.17351
RightToes  -2.08645e-008 3.77894e-005 6.81332e-007
Spine  7.12722 -1.08508 -4.2024
Spine1  4.21469 -2.68904 6.31996
HEad  -37.926 35.9274 -22.5466
LeftShoulder1  8.73131 -14.3657 -42.4956
LeftArm  -3.38224 9.68073 -26.656
LeftForeArm  166.457 -72.357 -149.225
LeftHand  -0.684274 1.48759 20.2745
RightShoulder  3.98355 6.67538 33.2492
RightArm  11.6706 -14.9042 33.6459
RightForeArm  157.714 74.976 142.193
RightHand  -1.1968 7.88813 -10.7825
LeftUpLeg  -13.2514 -4.05598 11.2599
LeftLeg  29.1943 10.2294 6.47067
LeftFoot  -15.1733 -0.497262 -17.3763
LeftToes  1.24767e-006 1.47042e-008 1.32732e-009
576
root  1.75284 37.6597 24.0755 2.89014 -51.0161 1.02826
RightUpLeg  -16.0286 0.131146 -12.0605
RightLeg  33.9103 -8.01975 -6.005
RightFoot  -18.662 0.467833 9.28839
RightToes  -2.08645e-008 3.77894e-005 6.81332e-007
Spine  5.98448 -0.925853 -4.48766
Spine1  5.57622 -2.69386 6.72837
HEad  -37.8675 34.1991 -22.1079
LeftShoulder1  8.61968 -14.264 -42.1661
LeftArm  -1.6297 10.7187 -28.0007
LeftForeArm  168.612 -71.6377 -150.758
LeftHand  -0.707751 1.16888 19.4162
RightShoulder  3.99591 6.65144 33.4629
RightArm  9.4003 -18.5949 32.3481
RightForeArm  161.922 73.9139 145.415
RightHand  -1.10975 8.27413 -9.76218
LeftUpLeg  -14.1086 -4.77903 10.0129
LeftLeg  31.1774 10.2196 6.95276
LeftFoot  -15.5472 -0.526164 -16.7587
LeftToes  1.24767e-006 1.47042e-008 1.32732e-009
577
root  1.99961 38.1271 24.6871 3.36768 -52.0291 0.749878
RightUpLeg  -13.7339 1.64564 -12.7736
RightLeg  28.5463 -8.721 -5.33315
RightFoot  -15.7167 0.274616 9.97834
RightToes  -2.08645e-008 3.77894e-005 6.81332e-007
Spine  4.25701 -0.332322 -3.31837
Spine1  5.67328 -1.74846 5.42687
HEad  -35.3955 33.6607 -21.0056
LeftShoulder1  8.17495 -13.8753 -40.7887
LeftArm  1.40061 15.8481 -29.9744
LeftForeArm  172.382 -68.7534 -155.278
LeftHand  -0.729988 0.858442 18.6771
RightShoulder  3.98263 6.63308 33.4035
RightArm  8.83567 -24.3244 31.587
RightForeArm  164.336 71.6869 150.029
RightHand  -1.1868 8.31299 -10.3817
LeftUpLeg  -12.4205 -3.03411 9.10811
LeftLeg  28.1153 10.0736 6.12981
LeftFoot  -14.2995 -0.331791 -16.0725
LeftToes  1.24767e-006 1.47042e-008 1.32732e-009
578
root  2.08626 38.8077 25.306 4.76758 -53.257 0.613861
RightUpLeg  -11.1567 2.34107 -13.4329
RightLeg  20.4333 -9.44995 -4.07995
RightFoot  -12.0882 -0.0158062 10.1747
RightToes  -2.08645e-008 3.77894e-005 6.81332e-007
Spine  0.873585 -0.00702524 -2.505
Spine1  5.85225 -1.14786 4.54687
HEad  -31.4884 34.4329 -19.4222
LeftShoulder1  7.69541 -13.4244 -39.2941
LeftArm  4.34588 22.6304 -30.9023
LeftForeArm  175.388 -65.6023 -158.985
LeftHand  -0.753715 0.512645 17.9469
RightShoulder  3.94031 6.59323 33.1402
RightArm  10.1272 -28.7268 31.2038
RightForeArm  164.358 69.758 152.965
RightHand  -1.26329 8.11952 -11.1728
LeftUpLeg  -10.107 -1.16403 8.23702
LeftLeg  21.9403 10.2568 4.84639
LeftFoot  -11.4364 0.0557618 -14.8679
LeftToes  1.24767e-006 1.47042e-008 1.32732e-009
579
root  2.08451 39.4135 25.7526 6.34326 -53.2101 0.842407
RightUpLeg  -9.29436 -0.547098 -13.5816
RightLeg  14.1775 -7.18614 -2.98623
RightFoot  -9.27264 -0.248988 10.232
RightToes  -2.08645e-008 3.77894e-005 6.81332e-007
Spine  -2.62362 -0.281747 -2.88895
Spine1  5.54075 -1.39712 4.90831
HEad  -27.5974 35.3492 -17.3779
LeftShoulder1  7.20665 -12.9526 -37.6996
LeftArm  6.64502 28.7179 -30.751
LeftForeArm  177.17 -63.966 -160.602
LeftHand  -0.768123 0.0276655 16.6773
RightShoulder  3.88127 6.54258 32.7496
RightArm  11.7517 -31.4413 31.2282
RightForeArm  165.897 68.7441 154.496
RightHand  -1.18022 8.20167 -10.4079
LeftUpLeg  -9.25551 -0.20237 7.49185
LeftLeg  16.7659 9.51808 3.79821
LeftFoot  -7.85421 0.508609 -15.0447
LeftToes  1.24767e-006 1.47042e-008 1.32732e-009
